PathFileType	4	(X/Y/Z)	subject01_walk1.trc
DataRate	CameraRate	NumFrames	NumMarkers	Units	OrigDataRate	OrigDataStartFrame	OrigNumFrames
60.00	60.00	       4	41	mm	60.00	32	       251
Frame#	Time	R.ASIS			L.ASIS			V.Sacral			R.Thigh.Upper			R.Thigh.Front			R.Thigh.Rear			L.Thigh.Upper			L.Thigh.Front			L.Thigh.Rear			R.Shank.Upper			R.Shank.Front			R.Shank.Rear			L.Shank.Upper			L.Shank.Front			L.Shank.Rear			R.Heel			R.Midfoot.Sup			R.Midfoot.Lat			R.Toe.Tip			L.Heel			L.Midfoot.Sup			L.Midfoot.Lat			L.Toe.Tip			Sternum			R.Acromium			L.Acromium			R.Bicep			L.Bicep			R.Elbow			L.Elbow			R.Wrist.Med			R.Wrist.Lat			L.Wrist.Med			L.Wrist.Lat			R.Toe.Lat			R.Toe.Med			L.Toe.Lat			L.Toe.Med			R.Temple			L.Temple			Top.Head			
		X1	Y1	Z1	X2	Y2	Z2	X3	Y3	Z3	X4	Y4	Z4	X5	Y5	Z5	X6	Y6	Z6	X7	Y7	Z7	X8	Y8	Z8	X9	Y9	Z9	X10	Y10	Z10	X11	Y11	Z11	X12	Y12	Z12	X13	Y13	Z13	X14	Y14	Z14	X15	Y15	Z15	X16	Y16	Z16	X17	Y17	Z17	X18	Y18	Z18	X19	Y19	Z19	X20	Y20	Z20	X21	Y21	Z21	X22	Y22	Z22	X23	Y23	Z23	X24	Y24	Z24	X25	Y25	Z25	X26	Y26	Z26	X27	Y27	Z27	X28	Y28	Z28	X29	Y29	Z29	X30	Y30	Z30	X31	Y31	Z31	X32	Y32	Z32	X33	Y33	Z33	X34	Y34	Z34	X35	Y35	Z35	X36	Y36	Z36	X37	Y37	Z37	X38	Y38	Z38	X39	Y39	Z39	X40	Y40	Z40	X41	Y41	Z41	

32      0.31000000	    631.30216795	   1087.10970122	    117.18276267	    646.45442264	   1070.10132474	   -142.58479539	    441.59368474	   1075.78485206	    -11.79892754	    660.60672694	    769.13950956	    184.16551976	    746.68890929	    720.80450791	    107.69566788	    684.13402000	    649.53678994	    187.75767372	    603.93830127	    764.20820623	   -188.05788634	    693.20658456	    731.62352002	   -119.05180886	    606.29567644	    654.85664237	   -166.64161268	    602.58291570	    528.74461936	    171.39977466	    640.01908373	    444.31611664	    131.75745043	    551.65112692	    458.25516520	    176.02270038	    595.18506510	    440.66649249	   -156.66039760	    638.06889355	    390.20595869	    -99.83635953	    571.98855318	    398.07963474	   -161.84118399	    295.83832535	    300.10025106	     60.46773938	    398.12883061	    191.90814603	     61.84065172	    358.02003112	    199.03467442	    160.38605603	    455.81803980	     71.18360931	    130.72664183	    487.52495003	     76.85740259	    -58.80745099	    658.05268149	     75.19676896	    -29.06374353	    642.52752101	     67.88143644	   -126.56236311	    770.42163294	     49.48115817	    -58.55622129	    663.52226405	   1385.94002560	    -32.46189936	    552.84602011	   1484.91087497	    168.34153031	    608.65030680	   1490.49492770	   -248.03206095	    545.84648353	   1287.01508128	    222.91274733	    641.97710345	   1251.15999289	   -262.21894050	    492.28658799	   1190.30261347	    252.08909487	    599.59242583	   1150.70164073	   -296.44370743	    612.63616115	    948.63995496	    269.58017241	    567.16551635	    939.78296942	    315.75636335	    722.89099735	    933.68061579	   -236.97270617	    681.51800731	    917.93062127	   -298.36934635	    388.55997090	    116.97031766	    190.83914225	    426.30982355	    105.23379858	     88.23583461	    705.06080219	     41.71588049	   -134.04840920	    719.91973082	     51.03500401	    -32.86934900	    730.68184163	   1608.07336517	     44.48170414	    745.84847084	   1608.66640106	    -93.30979803	    743.18183488	   1783.26666563	    -19.41661666
33      0.32000000	    629.86498210	   1087.99366437	    116.07957951	    644.29329203	   1069.91027662	   -143.76236739	    440.09149423	   1076.25930024	    -12.22521681	    664.88976032	    772.69900887	    184.04292434	    750.18584242	    725.06385587	    106.28869906	    690.84905621	    653.03381015	    186.97312953	    597.62906342	    764.39252136	   -188.12953934	    687.49286409	    730.92879321	   -120.43561383	    598.98049887	    655.13645333	   -167.41230551	    611.67340064	    529.39257627	    169.94589954	    650.90408031	    446.46543811	    131.35376661	    562.54155394	    457.36381517	    175.22400907	    585.21591673	    440.86503234	   -157.16061008	    628.25935415	    390.30017424	   -100.44883347	    562.16514413	    398.49495669	   -162.19317124	    310.07828141	    292.42109898	     61.51270803	    416.06378440	    188.11678054	     61.12237736	    376.66626900	    193.05174077	    160.07942332	    478.91861274	     69.16758991	    128.39824810	    476.28784380	     77.02970541	    -58.97274410	    646.63738320	     75.19236068	    -29.25929835	    631.09246719	     67.77974242	   -126.71606967	    758.89485669	     49.19949487	    -58.71503242	    662.28566753	   1386.37589255	    -33.07173319	    550.94593143	   1485.17221177	    167.81312893	    608.52747642	   1491.60671552	   -248.61788681	    542.32106915	   1287.91698369	    221.96330546	    642.23847010	   1252.47547887	   -262.41526206	    488.66211491	   1191.04801307	    250.90691985	    601.23696795	   1151.33870039	   -296.75824968	    608.64596739	    949.76642685	    269.10547209	    561.99867620	    940.62836123	    314.93515860	    727.45871966	    936.96936495	   -236.20081702	    686.59298669	    920.16637215	   -297.32643162	    410.06175079	    111.30311709	    189.41904693	    447.90095950	    102.32338410	     86.45384517	    693.58246830	     41.58279976	   -134.23998706	    708.43212918	     50.91679167	    -33.01238488	    729.70288328	   1608.55460891	     44.17816252	    744.90633113	   1609.24138234	    -93.27369577	    742.09015120	   1783.76302780	    -19.48445261
34      0.33000000	    629.67102159	   1089.46341632	    114.77594865	    642.34092342	   1069.58327974	   -145.56375503	    438.42454703	   1076.58136864	    -12.70116573	    668.52475374	    775.77652882	    184.77555867	    755.08750151	    730.36538748	    104.89277156	    696.64019836	    656.32427658	    186.20982368	    591.10026679	    764.62554001	   -188.05807518	    681.66687207	    730.46096066	   -122.46861264	    590.84488840	    655.69647740	   -168.04432474	    619.54684616	    530.04683994	    169.71815056	    661.74810885	    448.36680103	    130.71605914	    573.36386447	    456.66240087	    174.66771567	    574.80418378	    441.13391007	   -157.34511560	    619.05222879	    390.68388019	   -101.69618518	    552.00381916	    398.97372027	   -162.57049091	    325.27120333	    283.17850384	     63.02051024	    435.31493118	    183.44022905	     60.59558427	    396.78589386	    185.91092994	    159.96567540	    503.91381036	     66.67484878	    125.83832714	    464.63926643	     77.22825085	    -59.11109973	    634.74542639	     75.21345932	    -29.48389688	    619.24673595	     67.62702717	   -126.87523279	    746.88837378	     48.94089121	    -58.84312909	    661.51908334	   1387.20596639	    -33.54898141	    550.96911694	   1486.11855570	    166.58519908	    608.39363527	   1492.80323578	   -248.72264364	    539.70272996	   1288.44267094	    221.12890674	    642.01766446	   1253.21307714	   -262.60922579	    484.65288271	   1190.97235066	    250.07700563	    602.57893106	   1151.99019875	   -297.71398179	    604.86966587	    950.54756580	    268.38316866	    556.64465558	    941.15020821	    313.71924096	    732.10802694	    940.56043847	   -235.21217966	    692.22565836	    922.40218493	   -296.42373969	    432.57792616	    104.88136848	    187.71177423	    471.17339599	     98.86262911	     84.75189510	    681.65274869	     41.46848116	   -134.47787696	    696.53730327	     50.79939322	    -33.15043680	    728.30604705	   1608.27907693	     44.59157452	    744.25269388	   1609.82421488	    -93.63689515	    740.88112366	   1784.17982328	    -19.34718283
35      0.34000000	    628.79314094	   1090.11336150	    113.35758612	    640.33220897	   1069.20819584	   -146.82662783	    436.69629749	   1076.76141138	    -13.25689814	    671.48854498	    778.57340837	    184.84314955	    758.22913823	    734.15909267	    103.85860226	    701.51220093	    659.35467693	    185.35997260	    584.87968417	    764.91539827	   -188.00537889	    675.68162775	    729.74753914	   -123.90917523	    583.73738938	    656.18424882	   -168.65420463	    627.67539390	    530.71282108	    170.40744388	    671.29899018	    450.21424440	    129.51644322	    583.04837621	    455.74214334	    174.94793829	    564.98771963	    441.48248975	   -157.49094766	    609.49237917	    390.81190422	   -102.58726496	    542.21036965	    399.47793860	   -162.91736493	    340.38129478	    273.09444610	     64.74979637	    454.47798574	    178.28979191	     60.35047020	    416.90403214	    178.28765534	    160.07826946	    528.89162357	     64.08638026	    123.51198739	    453.42180331	     77.44911446	    -59.21320237	    623.26004821	     75.24220801	    -29.71193685	    607.83872011	     67.44272078	   -127.04126686	    735.30019301	     48.72536609	    -58.95510757	    660.95764904	   1387.59245693	    -33.85402185	    549.97212675	   1486.05310335	    165.98646553	    608.31793415	   1493.52325158	   -248.87159440	    536.34120653	   1288.61863197	    220.37390310	    642.66996920	   1254.44568421	   -263.58906418	    480.51449752	   1191.43858828	    248.96619686	    604.32947785	   1152.42694910	   -298.79715761	    600.86784206	    950.88996737	    268.15469971	    552.84761762	    941.88847113	    313.08447757	    736.90081793	    944.01565528	   -234.42543931	    697.45465025	    924.39130263	   -295.26986849	    456.97188810	     98.85287770	    186.95277753	    494.31575379	     95.21417714	     83.41056676	    670.12642967	     41.34877630	   -134.71918241	    685.08967291	     50.67486365	    -33.27410574	    727.70340584	   1608.42831841	     44.52507134	    743.62436300	   1610.09637112	    -93.83668965	    740.44704397	   1784.35313990	    -19.16844764
